<?xml version="1.0" encoding="UTF-8"?>
<svg id="Layer_2" data-name="Layer 2" xmlns="http://www.w3.org/2000/svg" viewBox="0 0 192 60.96">
  <defs>
    <style>
      .cls-1 {
        fill: none;
      }

      .cls-2 {
        fill: #fff;
      }
    </style>
  </defs>
  <g id="Layer_1-2" data-name="Layer 1">
    <g>
      <rect class="cls-1" width="192" height="60.96"/>
      <g>
        <path class="cls-2" d="M13.13,45.05c0,1.54-.67,2.98-2.43,2.98v.89c3.82,0,7.65-.2,11.53-.2s11.38,0,13.14.45l1.29-5.97-.83-.25c-1.34,2.74-2.94,4.08-6.87,4.08h-11.7c0-3.88-.31-9.64-.31-14.42s.31-12.13.31-14.51c0-1.54.67-2.98,2.43-2.98v-.89c-1.29,0-2.84.2-4.6.2-1.55,0-3.1-.2-4.96-.2v.89c2.79.4,3,.8,3,17.5v12.43Z"/>
        <path class="cls-2" d="M52.91,18.83c-9.16,0-15.88,6.6-15.88,15.27h0c0,8.67,6.73,15.27,15.88,15.27s15.88-6.6,15.88-15.27-6.73-15.27-15.89-15.27ZM52.91,48.02c-8.23,0-11.7-6.17-11.7-13.92s3.48-13.92,11.7-13.92,11.71,6.17,11.71,13.92-3.47,13.92-11.71,13.92Z"/>
        <path class="cls-2" d="M89.54,18.83c-9.15,0-15.88,6.6-15.88,15.27s6.73,15.27,15.88,15.27,15.88-6.6,15.88-15.27-6.73-15.27-15.88-15.27ZM89.54,48.02c-8.23,0-11.7-6.17-11.7-13.92s3.47-13.92,11.7-13.92,11.7,6.17,11.7,13.92-3.47,13.92-11.7,13.92Z"/>
        <path class="cls-2" d="M114.2,18.83h-.79l-1.68,24.36c-.26,3.68-.61,4.4-2.95,4.91v.76c1.28,0,2.51-.17,3.78-.17s2.6.17,3.83.17v-.76c-1.5-.17-2.73-1.18-2.73-4.14,0-1.1,0-3.05.09-4.15l.84-13.28h.22l12.71,21.41,10.91-21.37h.18l.88,15.02c.05.68.13,2.03.13,3.64,0,1.52-.35,2.75-2.2,2.87v.76c1.1,0,2.42-.17,3.7-.17,1.54,0,2.86.17,4.13.17v-.76c-1.93-.29-2.2-.68-2.37-4.1l-1.28-25.17h-.75l-12.32,24.24-14.34-24.24Z"/>
        <path class="cls-2" d="M157.53,19.34c-1.32,0-2.64.17-4.14.17-1.32,0-2.64-.17-4-.17v.76c1.72,0,2.2,1.23,2.2,2.54l.22,22.93c0,1.31-.7,2.54-1.94,2.54v.76c.88,0,2.2-.17,3.52-.17,1.5,0,2.82.17,3.74.17v-.76c-1.32,0-2.02-1.23-2.02-2.54l.22-22.93c0-1.31.48-2.54,2.2-2.54v-.76Z"/>
        <path class="cls-2" d="M179.82,24.16l-.18-4.74c-2.29.08-4.49-.59-6.77-.59-5.76,0-10.78,2.5-10.78,8.63,0,10.92,15.53,6.22,15.53,15.19,0,3.72-3.04,5.37-6.51,5.37-2.95,0-6.47-1.27-7.48-4.27h-.79l.18,4.4c2.64.78,5.38,1.19,8.14,1.23,5.41,0,9.55-2.88,9.55-8.38,0-10.11-15.53-6.09-15.53-15.19,0-3.85,3.43-5.63,7-5.63,2.77,0,5.94,1.23,6.86,3.98h.79Z"/>
      </g>
    </g>
  </g>
</svg>