<?xml version="1.0" encoding="UTF-8"?>
<svg id="Layer_1" data-name="Layer 1" xmlns="http://www.w3.org/2000/svg" viewBox="0 0 171 88">
  <defs>
    <style>
      .cls-1 {
        fill: none;
      }

      .cls-2 {
        fill: #fff;
      }

      .cls-3 {
        fill: #4c4d4f;
      }

      .cls-4 {
        fill: #d80028;
      }
    </style>
  </defs>
  <rect class="cls-1" width="171" height="88"/>
  <g>
    <path class="cls-4" d="M85.89.53l14.83,36.97-39.57,3.55L85.89.53Z"/>
    <path class="cls-2" d="M100.64,37.49l10.02,3.53L85.9.54l14.62,36.47.13.48ZM3.21,83.15c0,1.54-.67,2.98-2.43,2.98v.89c3.82,0,7.65-.2,11.53-.2s11.38,0,13.14.45l1.29-5.97-.83-.25c-1.34,2.74-2.94,4.08-6.87,4.08H7.35c0-3.88-.31-9.64-.31-14.42s.31-12.13.31-14.51c0-1.54.67-2.98,2.43-2.98v-.89c-1.29,0-2.84.2-4.6.2-1.55,0-3.1-.2-4.96-.2v.89c2.79.4,3,.8,3,17.5v12.43ZM31.3,72.2c0-7.74,3.48-13.92,11.7-13.92s11.71,6.17,11.71,13.92-3.47,13.92-11.71,13.92-11.7-6.17-11.7-13.92M27.12,72.2c0,8.67,6.73,15.27,15.88,15.27s15.88-6.6,15.88-15.27-6.73-15.27-15.89-15.27-15.88,6.6-15.88,15.27M67.93,72.2c0-7.74,3.47-13.92,11.7-13.92s11.7,6.17,11.7,13.92-3.47,13.92-11.7,13.92-11.7-6.17-11.7-13.92M63.75,72.2c0,8.67,6.73,15.27,15.88,15.27s15.88-6.6,15.88-15.27-6.73-15.27-15.88-15.27-15.88,6.6-15.88,15.27M104.29,56.93h-.79l-1.68,24.36c-.26,3.68-.61,4.4-2.95,4.91v.76c1.28,0,2.51-.17,3.78-.17s2.6.17,3.83.17v-.76c-1.5-.17-2.73-1.18-2.73-4.14,0-1.1,0-3.05.09-4.15l.84-13.28h.22l12.71,21.41,10.91-21.37h.18l.88,15.02c.05.68.13,2.03.13,3.64,0,1.52-.35,2.75-2.2,2.87v.76c1.1,0,2.42-.17,3.7-.17,1.54,0,2.86.17,4.13.17v-.76c-1.93-.29-2.2-.68-2.37-4.1l-1.28-25.17h-.75l-12.32,24.24-14.34-24.24ZM147.61,57.44c-1.32,0-2.64.17-4.14.17-1.32,0-2.64-.17-4-.17v.76c1.72,0,2.2,1.23,2.2,2.54l.22,22.93c0,1.31-.7,2.54-1.94,2.54v.76c.88,0,2.2-.17,3.52-.17,1.5,0,2.82.17,3.74.17v-.76c-1.32,0-2.02-1.23-2.02-2.54l.22-22.93c0-1.31.48-2.54,2.2-2.54v-.76ZM169.91,62.26l-.18-4.74c-2.29.08-4.49-.59-6.77-.59-5.76,0-10.78,2.5-10.78,8.63,0,10.92,15.53,6.22,15.53,15.19,0,3.72-3.04,5.37-6.51,5.37-2.95,0-6.47-1.27-7.48-4.27h-.79l.18,4.4c2.64.78,5.38,1.19,8.14,1.23,5.41,0,9.55-2.88,9.55-8.38,0-10.11-15.53-6.09-15.53-15.19,0-3.85,3.43-5.63,7-5.63,2.77,0,5.94,1.23,6.86,3.98h.79Z"/>
    <path class="cls-3" d="M61.1,40.95l39.48-3.49,10.02,3.52s-35.33,2.88-36.37,3.02-13.13-3.06-13.13-3.06"/>
  </g>
</svg>