<svg xmlns="http://www.w3.org/2000/svg" width="214.986" height="125.811">

<!-- BACKGROUND -->
<path fill="#1a1818" d="M.611.612h213.762v124.586H.611z"/>
<!-- BORDER -->
<!-- <path fill="none" stroke="#fff" stroke-miterlimit="10" stroke-width="1.225" d="M.61.612h213.764v124.586H.61z"/> -->

<!-- LOGO -->
<path d="M106.335 14.796l14.831 36.97L81.6 55.311z" fill="#d80028"/>

<!-- TEXT -->
<path d="M121.089 51.758l10.021 3.528-24.767-40.482 14.62 36.471zM23.66 97.414c0 1.543-.672 2.982-2.429 2.982v.895c3.824 0 7.649-.2 11.528-.2 3.826 0 11.385 0 13.143.449l1.293-5.968-.83-.249c-1.343 2.736-2.943 4.077-6.874 4.077h-11.7c0-3.878-.309-9.643-.309-14.415 0-4.573.309-12.129.309-14.514 0-1.542.674-2.984 2.432-2.984v-.894c-1.292 0-2.845.2-4.6.2-1.549 0-3.1-.2-4.961-.2v.894c2.792.4 3 .8 3 17.5zm28.083-10.946c0-7.743 3.477-13.917 11.7-13.917S75.15 78.725 75.15 86.468s-3.473 13.916-11.707 13.916-11.7-6.173-11.7-13.916m-4.181 0c0 8.671 6.733 15.273 15.883 15.273s15.884-6.6 15.884-15.273S72.6 71.197 63.443 71.197s-15.883 6.6-15.883 15.271m40.812 0c0-7.743 3.474-13.917 11.7-13.917s11.7 6.174 11.7 13.917-3.474 13.916-11.7 13.916-11.7-6.173-11.7-13.916m-4.181 0c0 8.671 6.733 15.273 15.883 15.273s15.883-6.6 15.883-15.273-6.731-15.271-15.883-15.271-15.883 6.6-15.883 15.271m40.542-15.271h-.79l-1.675 24.365c-.263 3.682-.614 4.4-2.947 4.908v.762c1.275 0 2.506-.165 3.783-.165 1.321 0 2.6.165 3.83.165v-.762c-1.5-.166-2.728-1.183-2.728-4.144 0-1.1 0-3.048.086-4.148l.836-13.282h.222l12.714 21.408 10.91-21.367h.177l.878 15.021c.047.677.134 2.029.134 3.638 0 1.521-.353 2.75-2.2 2.874v.762c1.1 0 2.423-.165 3.7-.165 1.54 0 2.86.165 4.135.165v-.762c-1.934-.294-2.2-.676-2.373-4.1l-1.282-25.173h-.749l-12.321 24.241zm43.325.507c-1.321 0-2.642.169-4.137.169-1.321 0-2.641-.169-4-.169v.762c1.718 0 2.2 1.226 2.2 2.537l.218 22.93c0 1.312-.7 2.539-1.937 2.539v.764c.88 0 2.2-.17 3.521-.17 1.5 0 2.816.17 3.738.17v-.764c-1.317 0-2.024-1.227-2.024-2.539l.224-22.93c0-1.311.483-2.537 2.2-2.537zm22.293 4.822l-.177-4.738c-2.285.084-4.489-.59-6.775-.59-5.763 0-10.779 2.495-10.779 8.627 0 10.915 15.53 6.218 15.53 15.191 0 3.722-3.035 5.369-6.509 5.369-2.95 0-6.47-1.267-7.482-4.272h-.79l.176 4.4a30.284 30.284 0 008.138 1.228c5.412 0 9.547-2.877 9.547-8.377 0-10.111-15.531-6.09-15.531-15.187 0-3.85 3.433-5.628 7-5.628 2.77 0 5.939 1.228 6.861 3.978z" fill="#fff"/>


<!-- <path d="M81.543 55.217l39.482-3.486 10.018 3.524s-35.334 2.879-36.371 3.024-13.129-3.062-13.129-3.062" fill="#4c4d4f"/> -->

</svg>